{"title":"The Musketeers S01E05 The Homecoming x264 AAC E-Subs [GWC].mp4","uid":9658975,"size":162502522,"categoryP":"video","categoryS":"tv_shows","magnet":"?xt=urn:btih:427619fb2a2d4fe6c958dde7a0137ec8a35083a5&amp;dn=The+Musketeers+S01E05+The+Homecoming+x264+AAC+E-Subs+%5BGWC%5D.mp4&amp;tr=udp%3A%2F%2Ftracker.openbittorrent.com%3A80&amp;tr=udp%3A%2F%2Fopen.demonii.com%3A1337&amp;tr=udp%3A%2F%2Ftracker.coppersurfer.tk%3A6969&amp;tr=udp%3A%2F%2Fexodus.desync.com%3A6969","seeders":2,"leechers":0,"uploader":"canc232","files":1,"time":1393238853,"description":"The Musketeers S01E05 The Homecoming x264 AAC E-Subs [GWC] \n\nSTORYLINE :\nSet on the streets of 17th century Paris, series gives a contemporary take on the classic story about a group of highly trained soldiers and bodyguards assigned to protect King and country. \n\n\nSCREENS : &lt;a href=&quot;\nhttp://i.imgur.com/bKAUIdB.jpg&quot; rel=&quot;nofollow&quot; target=&quot;_NEW&quot;&gt;\nhttp://i.imgur.com/bKAUIdB.jpg&lt;/a&gt; &lt;a href=&quot;\nhttp://i.imgur.com/7tmyd4b.jpg&quot; rel=&quot;nofollow&quot; target=&quot;_NEW&quot;&gt;\nhttp://i.imgur.com/7tmyd4b.jpg&lt;/a&gt; &lt;a href=&quot;\nhttp://i.imgur.com/eRAjsWB.jpg&quot; rel=&quot;nofollow&quot; target=&quot;_NEW&quot;&gt;\nhttp://i.imgur.com/eRAjsWB.jpg&lt;/a&gt;\n\n\nMEDIA INFO :\nGeneral \nFormat : MPEG-4 \nFormat profile : Base Media \nFile size : 155 MiB \nDuration : 54mn 17s \nOverall bit rate : 399 Kbps \n\nVideo \nFormat : AVC \nFormat profile : &lt;a class=&quot;__cf_email__&quot; href=&quot;/cdn-cgi/l/email-protection&quot; data-cfemail=&quot;f3bb9a949bb3bfc0ddc3&quot;&gt;[email&amp;#160;protected]&lt;/a&gt;&lt;script cf-hash='f9e31' type=&quot;text/javascript&quot;&gt;\n/* &lt;![CDATA[ */!function(){try{var t=&quot;currentScript&quot;in document?document.currentScript:function(){for(var t=document.getElementsByTagName(&quot;script&quot;),e=t.length;e--;)if(t[e].getAttribute(&quot;cf-hash&quot;))return t[e]}();if(t&amp;&amp;t.previousSibling){var e,r,n,i,c=t.previousSibling,a=c.getAttribute(&quot;data-cfemail&quot;);if(a){for(e=&quot;&quot;,r=parseInt(a.substr(0,2),16),n=2;a.length-n;n+=2)i=parseInt(a.substr(n,2),16)^r,e+=String.fromCharCode(i);e=document.createTextNode(e),c.parentNode.replaceChild(e,c)}}}catch(u){}}();/* ]]&gt; */&lt;/script&gt; \nFormat settings, CABAC : Yes \nFormat settings, ReFrames : 4 frames \nDuration : 54mn 17s \nBit rate : 336 Kbps \nMaximum bit rate : 2 650 Kbps \nWidth : 720 pixels \nHeight : 404 pixels \nDisplay aspect ratio : 16:9 \nFrame rate : 25.000 fps \nStream size : 130 MiB (84%) \nTitle : The Musketeers S01E05 The Homecoming x264 AAC E-Subs [GWC] \nWriting library : x264 core\n\nAudio \nFormat : AAC \nFormat profile : HE-AAC / LC \nDuration : 54mn 17s \nBit rate mode : Variable \nChannel(s) : 2 channels \nSampling rate : 48.0 KHz / 24.0 KHz \nStream size : 23.3 MiB (15%) \nLanguage : English \n\nText \nFormat : Timed Text \nDuration : 53mn 59s \nBit rate mode : Variable \nBit rate : 61 bps \nStream size : 24.2 KiB (0%) \nTitle : English Subtitle by Stubbie \nLanguage : English ","torrent":{"xt":"urn:btih:427619fb2a2d4fe6c958dde7a0137ec8a35083a5","amp;dn":"The+Musketeers+S01E05+The+Homecoming+x264+AAC+E-Subs+%5BGWC%5D.mp4","amp;tr":["udp%3A%2F%2Ftracker.openbittorrent.com%3A80","udp%3A%2F%2Fopen.demonii.com%3A1337","udp%3A%2F%2Ftracker.coppersurfer.tk%3A6969","udp%3A%2F%2Fexodus.desync.com%3A6969"],"infoHash":"427619fb2a2d4fe6c958dde7a0137ec8a35083a5","infoHashBuffer":{"type":"Buffer","data":[66,118,25,251,42,45,79,230,201,88,221,231,160,19,126,200,163,80,131,165]},"announce":[],"urlList":[]}}